<svg width="386" height="382" viewBox="0 0 386 382" fill="none" xmlns="http://www.w3.org/2000/svg">
<g filter="url(#filter0_i_1_4)">
<rect width="382" height="382" rx="64" fill="#3E4456"/>
<g filter="url(#filter1_f_1_4)">
<path d="M35.5469 157.266L36.1719 157.5L72.9688 203.828L109.844 157.5L110.547 157.266H139.609L140.469 157.656L130.234 161.094L129.297 161.562V212.188L130.234 212.578L141.25 216.016L140.469 216.484H104.375L103.516 216.016L113.516 212.578L114.297 212.188V163.281H113.672L71.0938 217.109L70.2344 217.266H68.4375L67.5781 217.109L25 163.906H24.375V212.188L25.1562 212.578L35.0781 216.016L34.2188 216.484H5.78125L4.92188 216.016L15.3906 212.578L16.25 212.188V161.562L15.3906 161.094L5.625 157.656L6.48438 157.266H35.5469ZM229.453 216.484L228.594 216.016L235.938 212.578L236.562 212.422C236.823 212.422 236.823 212.292 236.562 212.031L223.75 194.766C223.542 194.557 223.333 194.453 223.125 194.453H185.547C185.286 194.557 185.052 194.661 184.844 194.766L171.25 212.188L172.109 212.812L183.125 216.016L180.078 216.484H152.734L151.875 216.016L161.875 212.578L162.578 212.344L206.406 156.016C206.51 155.807 206.745 155.703 207.109 155.703H211.406C211.719 155.703 211.953 155.807 212.109 156.016L252.422 212.266L253.125 212.5L261.953 216.016L261.016 216.484H229.453ZM205.625 169.062C205.365 168.906 205.156 168.828 205 168.828C204.688 168.828 204.453 168.906 204.297 169.062L188.125 190.156C187.708 190.573 187.943 190.781 188.828 190.781H220C220.833 190.781 221.146 190.573 220.938 190.156L205.625 169.062ZM271.641 157.656L272.5 157.266H296.719L297.344 157.422L361.328 200.625V161.875L360.625 161.484L351.328 157.656L352.109 157.266H379.453L380.312 157.656L370.781 161.484L369.922 161.875V216.719L368.906 217.188H365.625L364.766 216.875L290.469 166.641V211.797L291.094 212.266L300.312 216.016L299.453 216.484H274.062L273.125 216.016L280.938 212.266L281.875 211.797V161.875L280.938 161.484L271.641 157.656Z" fill="white"/>
</g>
</g>
<defs>
<filter id="filter0_i_1_4" x="0" y="0" width="382" height="386" filterUnits="userSpaceOnUse" color-interpolation-filters="sRGB">
<feFlood flood-opacity="0" result="BackgroundImageFix"/>
<feBlend mode="normal" in="SourceGraphic" in2="BackgroundImageFix" result="shape"/>
<feColorMatrix in="SourceAlpha" type="matrix" values="0 0 0 0 0 0 0 0 0 0 0 0 0 0 0 0 0 0 127 0" result="hardAlpha"/>
<feOffset dy="4"/>
<feGaussianBlur stdDeviation="2"/>
<feComposite in2="hardAlpha" operator="arithmetic" k2="-1" k3="1"/>
<feColorMatrix type="matrix" values="0 0 0 0 0 0 0 0 0 0 0 0 0 0 0 0 0 0 0.25 0"/>
<feBlend mode="normal" in2="shape" result="effect1_innerShadow_1_4"/>
</filter>
<filter id="filter1_f_1_4" x="0.921875" y="151.703" width="383.391" height="69.5625" filterUnits="userSpaceOnUse" color-interpolation-filters="sRGB">
<feFlood flood-opacity="0" result="BackgroundImageFix"/>
<feBlend mode="normal" in="SourceGraphic" in2="BackgroundImageFix" result="shape"/>
<feGaussianBlur stdDeviation="2" result="effect1_foregroundBlur_1_4"/>
</filter>
</defs>
</svg>
