<svg width="382" height="382" viewBox="0 0 382 382" fill="none" xmlns="http://www.w3.org/2000/svg">
<g filter="url(#filter0_i_1_4)">
<rect width="382" height="382" rx="64" fill="#3E4456"/>
<path d="M65.4375 163.812L65.9375 164L95.375 201.062L124.875 164L125.438 163.812H148.688L149.375 164.125L141.188 166.875L140.438 167.25V207.75L141.188 208.062L150 210.812L149.375 211.188H120.5L119.812 210.812L127.812 208.062L128.438 207.75V168.625H127.938L93.875 211.688L93.1875 211.812H91.75L91.0625 211.688L57 169.125H56.5V207.75L57.125 208.062L65.0625 210.812L64.375 211.188H41.625L40.9375 210.812L49.3125 208.062L50 207.75V167.25L49.3125 166.875L41.5 164.125L42.1875 163.812H65.4375ZM220.562 211.188L219.875 210.812L225.75 208.062L226.25 207.938C226.458 207.938 226.458 207.833 226.25 207.625L216 193.812C215.833 193.646 215.667 193.562 215.5 193.562H185.438C185.229 193.646 185.042 193.729 184.875 193.812L174 207.75L174.688 208.25L183.5 210.812L181.062 211.188H159.188L158.5 210.812L166.5 208.062L167.062 207.875L202.125 162.812C202.208 162.646 202.396 162.562 202.688 162.562H206.125C206.375 162.562 206.562 162.646 206.688 162.812L238.938 207.812L239.5 208L246.562 210.812L245.812 211.188H220.562ZM201.5 173.25C201.292 173.125 201.125 173.062 201 173.062C200.75 173.062 200.562 173.125 200.438 173.25L187.5 190.125C187.167 190.458 187.354 190.625 188.062 190.625H213C213.667 190.625 213.917 190.458 213.75 190.125L201.5 173.25ZM254.312 164.125L255 163.812H274.375L274.875 163.938L326.062 198.5V167.5L325.5 167.188L318.062 164.125L318.688 163.812H340.562L341.25 164.125L333.625 167.188L332.938 167.5V211.375L332.125 211.75H329.5L328.812 211.5L269.375 171.312V207.438L269.875 207.812L277.25 210.812L276.562 211.188H256.25L255.5 210.812L261.75 207.812L262.5 207.438V167.5L261.75 167.188L254.312 164.125Z" fill="white"/>
</g>
<defs>
<filter id="filter0_i_1_4" x="0" y="0" width="382" height="386" filterUnits="userSpaceOnUse" color-interpolation-filters="sRGB">
<feFlood flood-opacity="0" result="BackgroundImageFix"/>
<feBlend mode="normal" in="SourceGraphic" in2="BackgroundImageFix" result="shape"/>
<feColorMatrix in="SourceAlpha" type="matrix" values="0 0 0 0 0 0 0 0 0 0 0 0 0 0 0 0 0 0 127 0" result="hardAlpha"/>
<feOffset dy="4"/>
<feGaussianBlur stdDeviation="2"/>
<feComposite in2="hardAlpha" operator="arithmetic" k2="-1" k3="1"/>
<feColorMatrix type="matrix" values="0 0 0 0 0 0 0 0 0 0 0 0 0 0 0 0 0 0 0.25 0"/>
<feBlend mode="normal" in2="shape" result="effect1_innerShadow_1_4"/>
</filter>
</defs>
</svg>
